<?xml version="1.0" encoding="UTF-8" standalone="no"?>
<!DOCTYPE svg PUBLIC "-//W3C//DTD SVG 1.1//EN" "http://www.w3.org/Graphics/SVG/1.1/DTD/svg11.dtd">
<svg xmlns="http://www.w3.org/2000/svg" version="1.1" viewBox="0.00 0.00 1920.00 272.00">
<g stroke-width="2.00" fill="none" stroke-linecap="butt">
<path stroke="#d4d3d1" stroke-opacity="0.627" vector-effect="non-scaling-stroke" d="
  M 1106.92 108.14
  L 1098.29 108.02
  Q 1097.50 108.01 1098.18 108.41
  Q 1098.92 108.85 1099.74 108.54
  A 0.75 0.75 0.0 0 1 1100.75 109.24
  L 1100.75 168.80
  A 0.66 0.66 0.0 0 1 1099.94 169.44
  Q 1099.19 169.27 1098.45 169.45
  Q 1097.47 169.70 1098.47 169.81
  Q 1102.48 170.23 1106.62 169.69
  Q 1107.69 169.55 1106.63 169.37
  Q 1105.76 169.21 1104.83 169.38
  A 0.60 0.60 0.0 0 1 1104.13 168.79
  L 1104.13 109.42
  Q 1104.13 108.89 1104.61 108.69
  Q 1105.48 108.32 1106.81 108.82"
/>
<path stroke="#d4d3d1" stroke-opacity="0.627" vector-effect="non-scaling-stroke" d="
  M 1126.49 143.02
  L 1126.60 156.46
  Q 1126.60 156.68 1126.82 156.67
  L 1127.39 156.65
  Q 1127.66 156.63 1127.65 156.36
  L 1127.45 143.74"
/>
<path stroke="#d4d3d1" stroke-opacity="0.627" vector-effect="non-scaling-stroke" d="
  M 792.26 169.24
  Q 792.18 169.44 792.21 169.60
  Q 792.27 170.00 792.67 170.04
  Q 794.96 170.24 797.29 169.83
  Q 797.95 169.71 797.42 169.31
  Q 796.29 168.45 796.75 165.99"
/>
<path stroke="#d4d3d1" stroke-opacity="0.627" vector-effect="non-scaling-stroke" d="
  M 819.38 159.79
  L 819.35 168.58
  Q 819.35 169.19 818.75 169.31
  Q 817.98 169.47 817.13 169.32
  Q 817.03 169.30 816.94 169.34
  Q 816.78 169.40 816.80 169.62
  Q 816.82 169.84 817.04 169.85
  L 831.05 170.00
  Q 831.69 170.01 831.69 169.37
  L 831.75 158.93"
/>
<path stroke="#d4d3d1" stroke-opacity="0.627" vector-effect="non-scaling-stroke" d="
  M 846.74 156.26
  L 846.72 168.74
  Q 846.72 169.26 846.21 169.39
  Q 845.23 169.64 844.20 169.11
  A 0.03 0.02 -58.3 0 0 844.18 169.12
  L 844.12 169.37
  Q 844.02 169.76 844.42 169.81
  Q 848.44 170.26 852.71 169.66
  Q 853.63 169.53 852.72 169.33
  Q 851.79 169.12 850.89 169.42
  A 0.53 0.53 0.0 0 1 850.20 168.92
  L 850.15 156.22"
/>
<path stroke="#d4d3d1" stroke-opacity="0.627" vector-effect="non-scaling-stroke" d="
  M 855.24 155.89
  Q 855.25 161.03 855.28 166.00
  C 855.30 169.50 857.59 170.53 860.67 170.12
  Q 861.59 169.99 860.72 169.67
  L 859.81 169.33
  A 1.85 1.83 10.4 0 1 858.61 167.61
  L 858.57 154.82"
/>
<path stroke="#d4d3d1" stroke-opacity="0.627" vector-effect="non-scaling-stroke" d="
  M 876.98 154.30
  L 876.97 168.74
  Q 876.97 168.96 876.84 169.14
  Q 876.75 169.27 876.60 169.36
  Q 875.78 169.87 876.74 169.91
  Q 878.61 169.98 880.81 169.63
  Q 881.51 169.52 880.83 169.36
  Q 880.03 169.17 879.08 169.47
  A 0.73 0.72 -8.6 0 1 878.14 168.78
  L 878.12 153.72"
/>
<path stroke="#d4d3d1" stroke-opacity="0.627" vector-effect="non-scaling-stroke" d="
  M 883.31 153.92
  Q 884.24 161.75 885.05 169.50
  Q 885.12 170.09 885.70 170.04
  Q 886.23 170.00 886.30 169.47
  L 888.69 152.63"
/>
<path stroke="#d4d3d1" stroke-opacity="0.627" vector-effect="non-scaling-stroke" d="
  M 894.92 152.14
  Q 894.83 160.15 894.86 168.62
  Q 894.86 169.10 894.49 169.39
  Q 894.04 169.74 894.60 169.88
  C 896.44 170.35 899.09 169.78 901.05 169.65
  Q 901.09 169.64 901.08 169.60
  L 901.05 169.35
  Q 901.03 169.26 900.94 169.27
  Q 899.80 169.36 898.95 169.09
  Q 898.40 168.92 898.40 168.34
  L 898.31 153.42"
/>
<path stroke="#d4d3d1" stroke-opacity="0.627" vector-effect="non-scaling-stroke" d="
  M 916.41 156.86
  L 916.39 168.37
  A 0.92 0.92 0.0 0 1 915.96 169.15
  Q 915.16 169.67 913.95 169.20
  A 0.02 0.01 -58.3 0 0 913.93 169.21
  L 913.87 169.46
  Q 913.83 169.65 914.02 169.68
  Q 917.97 170.23 922.23 169.67
  Q 923.21 169.54 922.24 169.36
  Q 921.44 169.21 920.65 169.33
  A 0.59 0.59 0.0 0 1 919.96 168.75
  L 919.89 155.74"
/>
<path stroke="#d4d3d1" stroke-opacity="0.627" vector-effect="non-scaling-stroke" d="
  M 938.12 158.83
  L 938.07 168.63
  A 0.88 0.87 -81.9 0 1 936.96 169.47
  Q 936.09 169.23 935.69 169.35
  Q 934.78 169.63 935.85 169.76
  Q 938.71 170.10 941.75 169.62
  Q 942.52 169.50 941.76 169.35
  Q 940.79 169.15 939.85 169.32
  Q 939.24 169.43 939.24 168.81
  L 939.23 159.32"
/>
<path stroke="#d4d3d1" stroke-opacity="0.627" vector-effect="non-scaling-stroke" d="
  M 948.52 158.90
  L 950.50 170.17
  A 0.58 0.57 -13.8 0 0 951.25 170.62
  L 951.55 170.52
  Q 951.79 170.44 951.79 170.19
  L 951.76 161.15"
/>
<path stroke="#d4d3d1" stroke-opacity="0.627" vector-effect="non-scaling-stroke" d="
  M 968.40 160.99
  C 968.26 165.73 968.38 170.61 974.69 170.53
  Q 980.46 170.45 980.46 164.62
  Q 980.46 160.25 980.62 156.43"
/>
<path stroke="#d4d3d1" stroke-opacity="0.627" vector-effect="non-scaling-stroke" d="
  M 996.73 150.41
  Q 996.79 157.61 996.74 164.50
  Q 996.70 170.52 1002.70 170.99
  C 1005.97 171.25 1007.97 169.64 1007.98 166.52
  Q 1008.01 138.80 1007.99 109.13
  Q 1007.99 108.35 1008.76 108.44
  L 1010.42 108.62
  Q 1010.69 108.65 1010.69 108.38
  L 1010.69 108.12
  Q 1010.69 107.96 1010.53 107.94
  Q 1007.61 107.66 1004.55 107.92
  Q 1003.59 108.00 1004.50 108.32
  Q 1005.24 108.58 1006.11 108.51
  Q 1006.90 108.44 1006.90 109.24
  L 1006.92 166.79
  Q 1006.92 170.26 1003.46 170.05
  L 1002.67 170.01
  Q 1000.23 169.86 1000.23 167.42
  L 1000.19 109.23
  A 0.74 0.74 0.0 0 1 1000.99 108.49
  Q 1001.74 108.56 1002.42 108.37
  Q 1003.46 108.08 1002.38 107.99
  Q 998.31 107.66 994.23 108.05"
/>
<path stroke="#d4d3d1" stroke-opacity="0.627" vector-effect="non-scaling-stroke" d="
  M 1084.25 113.34
  A 5.98 5.98 0.0 0 0 1078.27 107.36
  L 1077.95 107.36
  A 5.98 5.98 0.0 0 0 1071.97 113.34
  L 1071.97 164.64
  A 5.98 5.98 0.0 0 0 1077.95 170.62
  L 1078.27 170.62
  A 5.98 5.98 0.0 0 0 1084.25 164.64
  L 1084.25 113.34"
/>
<path stroke="#d4d3d1" stroke-opacity="0.627" vector-effect="non-scaling-stroke" d="
  M 1050.90 136.24
  C 1054.00 137.15 1053.97 141.85 1053.94 144.53
  Q 1053.94 144.60 1054.00 144.60
  L 1054.25 144.59
  Q 1054.46 144.59 1054.46 144.38
  Q 1054.47 136.07 1054.54 127.43
  Q 1054.54 127.20 1054.30 127.18
  L 1054.05 127.17
  A 0.05 0.05 0.0 0 0 1054.00 127.21
  Q 1053.90 129.65 1053.50 132.06
  Q 1053.21 133.83 1051.89 135.01
  Q 1051.68 135.21 1051.41 135.32
  Q 1050.00 135.89 1050.00 134.37
  Q 1050.04 122.67 1049.96 110.21
  Q 1049.94 107.70 1052.49 108.39
  Q 1052.76 108.46 1054.48 108.92
  Q 1057.04 109.61 1057.47 112.23
  Q 1058.44 118.08 1057.95 124.23
  Q 1057.95 124.30 1058.02 124.31
  L 1058.32 124.33
  A 0.21 0.21 0.0 0 0 1058.54 124.13
  Q 1059.02 116.20 1058.84 108.45
  Q 1058.83 107.84 1058.21 107.84
  L 1044.32 107.93
  Q 1044.21 107.93 1044.22 107.99
  L 1044.26 108.24
  Q 1044.30 108.50 1044.55 108.44
  Q 1045.26 108.29 1045.94 108.50
  Q 1046.50 108.67 1046.50 109.25
  L 1046.51 168.69
  A 0.69 0.68 -2.8 0 1 1045.89 169.37
  Q 1045.08 169.44 1044.40 169.30
  Q 1044.33 169.28 1044.33 169.35
  L 1044.30 169.61
  Q 1044.28 169.79 1044.47 169.81
  Q 1047.35 170.08 1050.24 169.91
  Q 1050.43 169.90 1050.58 169.79
  Q 1050.98 169.52 1050.54 169.34
  Q 1049.97 169.10 1049.97 168.48
  Q 1050.09 152.86 1050.18 136.77
  A 0.56 0.56 0.0 0 1 1050.90 136.24"
/>
<path stroke="#d4d3d1" stroke-opacity="0.627" vector-effect="non-scaling-stroke" d="
  M 1127.1724 170.5195
  A 3.30 2.26 91.0 0 0 1129.4897 167.2594
  A 3.30 2.26 91.0 0 0 1127.2876 163.9205
  A 3.30 2.26 91.0 0 0 1124.9703 167.1806
  A 3.30 2.26 91.0 0 0 1127.1724 170.5195"
/>
<path stroke="#d4d3d1" stroke-opacity="0.627" vector-effect="non-scaling-stroke" d="
  M 892.42 169.21
  Q 891.77 169.33 892.37 169.61
  Q 892.95 169.88 893.62 169.73
  Q 894.33 169.56 893.64 169.32
  Q 893.01 169.11 892.42 169.21"
/>
<path stroke="#d4d3d1" stroke-opacity="0.627" vector-effect="non-scaling-stroke" d="
  M 1080.87 110.47
  A 2.71 2.71 0.0 0 0 1078.16 107.76
  L 1078.08 107.76
  A 2.71 2.71 0.0 0 0 1075.37 110.47
  L 1075.37 167.49
  A 2.71 2.71 0.0 0 0 1078.08 170.20
  L 1078.16 170.20
  A 2.71 2.71 0.0 0 0 1080.87 167.49
  L 1080.87 110.47"
/>
<path stroke="#d4d3d1" stroke-opacity="0.627" vector-effect="non-scaling-stroke" d="
  M 971.77 159.27
  Q 971.65 163.60 971.83 167.94
  Q 971.88 169.26 973.90 170.01
  Q 974.44 170.21 974.99 169.95
  Q 977.21 168.90 977.21 166.45
  L 977.24 158.19"
/>
<path stroke="#d4d3d1" stroke-opacity="0.627" vector-effect="non-scaling-stroke" d="
  M 822.90 159.45
  L 822.90 168.93
  Q 822.90 169.29 823.26 169.32
  C 825.36 169.48 828.75 169.47 829.69 167.25
  Q 831.19 163.69 830.97 158.82"
/>
</g>
<path fill="#282219" fill-opacity="0.251" d="
  M 1106.92 108.14
  L 1098.29 108.02
  Q 1097.50 108.01 1098.18 108.41
  Q 1098.92 108.85 1099.74 108.54
  A 0.75 0.75 0.0 0 1 1100.75 109.24
  L 1100.75 168.80
  A 0.66 0.66 0.0 0 1 1099.94 169.44
  Q 1099.19 169.27 1098.45 169.45
  Q 1097.47 169.70 1098.47 169.81
  Q 1102.48 170.23 1106.62 169.69
  Q 1107.69 169.55 1106.63 169.37
  Q 1105.76 169.21 1104.83 169.38
  A 0.60 0.60 0.0 0 1 1104.13 168.79
  L 1104.13 109.42
  Q 1104.13 108.89 1104.61 108.69
  Q 1105.48 108.32 1106.81 108.82
  Q 1106.81 109.95 1107.98 110.62
  Q 1108.40 110.86 1108.51 111.33
  Q 1108.99 113.28 1110.25 115.25
  Q 1111.68 117.49 1112.38 120.76
  Q 1112.51 121.34 1112.97 121.77
  Q 1113.37 122.14 1113.49 122.66
  L 1114.29 126.25
  Q 1114.40 126.75 1114.82 127.04
  Q 1115.57 127.55 1115.70 128.51
  Q 1115.98 130.67 1117.15 132.95
  A 2.11 1.95 -59.7 0 1 1117.36 133.90
  Q 1117.31 136.47 1117.90 139.26
  A 0.93 0.92 15.5 0 0 1118.20 139.78
  L 1120.24 141.60
  Q 1120.65 141.96 1121.18 141.85
  Q 1122.24 141.64 1122.81 142.44
  Q 1123.02 142.75 1123.37 142.63
  Q 1124.18 142.36 1124.55 143.06
  Q 1124.75 143.44 1125.16 143.59
  Q 1126.04 143.91 1126.49 143.02
  L 1126.60 156.46
  Q 1126.60 156.68 1126.82 156.67
  L 1127.39 156.65
  Q 1127.66 156.63 1127.65 156.36
  L 1127.45 143.74
  Q 1132.26 143.87 1137.01 143.21
  Q 1143.96 142.25 1151.08 141.64
  A 2.42 2.42 0.0 0 0 1153.28 138.99
  Q 1152.60 132.34 1154.83 125.40
  Q 1155.78 122.45 1156.75 119.98
  C 1157.76 117.38 1159.51 115.36 1160.60 112.81
  Q 1162.77 107.73 1165.24 104.73
  Q 1167.59 101.86 1172.66 98.68
  Q 1176.70 96.15 1181.40 95.03
  Q 1184.67 94.26 1190.60 93.98
  Q 1207.68 93.18 1220.72 104.25
  Q 1224.09 107.12 1226.48 111.02
  Q 1229.03 115.20 1231.89 119.08
  Q 1233.36 121.07 1234.39 123.55
  Q 1235.34 125.83 1236.51 128.04
  A 2.33 2.31 -11.4 0 0 1238.36 129.26
  Q 1246.92 130.05 1255.25 131.93
  C 1260.51 133.11 1265.78 133.08 1270.99 134.82
  A 2.63 2.63 0.0 0 1 1272.74 136.86
  C 1274.08 144.51 1272.39 152.31 1272.15 160.01
  Q 1271.90 168.01 1270.94 175.95
  Q 1270.39 180.46 1270.30 183.59
  C 1270.21 187.03 1270.27 190.38 1269.91 193.79
  Q 1268.95 202.83 1268.45 211.01
  Q 1268.29 213.68 1266.11 214.86
  Q 1261.53 217.34 1257.13 219.70
  Q 1255.54 220.55 1254.81 222.24
  Q 1253.97 224.19 1254.17 226.39
  Q 1254.61 231.25 1253.60 235.41
  Q 1251.91 242.39 1248.20 248.73
  Q 1247.74 249.52 1247.15 250.11
  C 1246.60 250.64 1246.20 251.34 1245.53 251.73
  Q 1242.70 253.38 1240.88 255.40
  Q 1239.81 256.59 1240.15 258.31
  A 0.97 0.97 0.0 0 0 1240.72 259.01
  L 1247.33 261.80
  A 0.88 0.81 -31.2 0 0 1247.67 261.87
  Q 1248.83 261.86 1249.62 262.76
  Q 1250.07 263.28 1250.75 263.38
  C 1252.38 263.64 1255.48 264.04 1256.59 265.34
  Q 1256.95 265.76 1257.50 265.66
  Q 1258.70 265.43 1259.02 266.60
  Q 1259.15 267.11 1259.68 267.19
  Q 1260.67 267.35 1260.89 268.21
  Q 1260.97 268.55 1261.24 268.78
  Q 1261.49 269.00 1261.79 268.87
  Q 1262.22 268.67 1262.52 269.05
  C 1262.91 269.56 1262.94 270.21 1263.38 270.67
  Q 1263.51 270.81 1263.69 270.81
  Q 1264.18 270.79 1264.14 271.27
  Q 1264.12 271.66 1263.88 272.00
  L 1252.90 272.00
  Q 1250.48 271.53 1248.12 272.00
  L 1239.89 272.00
  L 1230.76 271.30
  Q 1230.26 271.26 1230.41 270.77
  Q 1231.01 268.75 1233.02 268.28
  Q 1233.52 268.16 1233.77 267.71
  Q 1235.75 264.17 1232.98 261.10
  Q 1232.56 260.62 1231.92 260.62
  L 1229.25 260.62
  Q 1228.82 260.62 1228.69 261.02
  Q 1228.65 261.15 1228.53 261.23
  Q 1228.22 261.42 1227.87 261.36
  Q 1225.77 260.99 1223.53 261.13
  Q 1222.52 261.19 1221.53 260.87
  Q 1219.90 260.34 1217.91 261.26
  Q 1217.53 261.44 1217.60 261.86
  Q 1217.97 263.98 1218.13 266.11
  Q 1218.14 266.23 1218.19 266.34
  Q 1218.23 266.41 1218.31 266.45
  Q 1218.95 266.72 1218.33 267.06
  Q 1218.17 267.14 1218.01 267.21
  Q 1217.84 267.28 1217.89 267.45
  L 1218.71 270.11
  Q 1218.85 270.55 1219.31 270.58
  L 1222.77 270.79
  Q 1222.99 270.80 1222.77 270.83
  L 1213.22 272.00
  L 1148.14 272.00
  L 1141.49 272.00
  L 1061.88 272.00
  L 1056.99 272.00
  L 1033.01 272.00
  Q 1030.70 271.50 1028.45 272.00
  L 1027.03 272.00
  Q 1024.14 271.46 1021.38 272.00
  L 705.69 272.00
  Q 691.73 271.44 684.00 271.53
  Q 661.07 271.78 638.12 272.00
  L 614.28 272.00
  Q 611.44 271.40 608.60 272.00
  L 594.26 272.00
  L 572.61 272.00
  Q 572.64 272.27 572.26 272.00
  L 556.68 272.00
  L 554.65 272.00
  L 541.38 272.00
  L 540.45 272.00
  L 526.63 272.00
  L 524.50 272.00
  L 518.64 272.00
  L 299.88 272.00
  L 291.41 271.62
  Q 290.41 271.58 291.34 271.21
  Q 292.01 270.94 292.74 270.81
  Q 293.26 270.72 293.56 270.28
  Q 294.20 269.33 295.10 268.63
  Q 298.03 266.38 299.92 263.73
  Q 301.03 262.16 301.39 260.34
  Q 301.74 258.56 302.49 256.62
  Q 302.52 256.54 302.46 256.49
  Q 302.36 256.38 302.23 256.38
  Q 302.12 256.37 302.12 256.27
  Q 302.12 256.17 302.11 256.07
  Q 302.07 255.65 302.15 256.07
  Q 302.19 256.25 302.35 256.34
  Q 302.68 256.53 302.77 256.16
  L 303.15 254.60
  Q 303.25 254.18 303.55 253.87
  Q 306.06 251.24 309.78 250.38
  Q 311.77 249.91 313.35 248.74
  Q 324.39 240.60 338.97 236.49
  C 345.92 234.54 353.40 232.62 360.20 229.90
  Q 367.62 226.94 374.87 223.66
  Q 377.54 222.45 380.22 220.78
  Q 386.13 217.10 401.92 205.61
  Q 408.66 200.71 416.85 199.83
  C 420.90 199.39 424.28 197.73 428.17 197.06
  Q 438.53 195.27 448.80 193.24
  C 451.46 192.71 454.09 192.98 456.66 192.25
  Q 458.94 191.60 461.54 191.40
  C 463.77 191.22 465.87 190.80 468.11 190.77
  C 470.77 190.73 473.31 189.97 475.97 189.70
  Q 480.69 189.24 485.61 188.57
  Q 490.87 187.85 496.81 187.71
  Q 501.55 187.59 508.26 186.86
  Q 519.10 185.67 530.50 184.94
  Q 538.75 184.40 547.25 183.42
  Q 551.55 182.93 556.68 184.47
  Q 558.23 184.94 559.80 184.59
  C 561.21 184.28 562.50 184.28 563.86 183.70
  Q 580.72 176.51 597.26 168.80
  C 601.45 166.84 610.08 164.08 614.22 167.28
  Q 615.25 168.08 616.22 168.88
  Q 617.80 170.17 618.52 171.97
  Q 619.21 173.67 620.50 174.69
  Q 623.46 177.05 627.27 178.86
  Q 634.74 182.42 642.43 185.79
  Q 649.93 189.08 659.85 190.18
  C 661.78 190.39 663.50 191.14 665.37 191.36
  Q 671.07 192.04 676.40 193.19
  Q 681.83 194.37 687.48 195.33
  Q 697.28 196.99 706.47 200.50
  C 715.58 203.98 724.53 207.89 733.78 210.38
  Q 739.74 211.98 745.81 213.92
  C 749.55 215.11 754.72 219.01 758.16 215.71
  Q 759.80 214.15 760.51 211.17
  C 761.22 208.20 761.97 205.01 763.41 202.37
  Q 767.98 193.96 774.04 184.75
  C 776.60 180.86 780.18 176.20 783.91 173.56
  Q 786.24 171.91 789.38 171.22
  Q 790.14 171.05 790.07 170.19
  Q 790.03 169.69 790.52 169.59
  L 792.26 169.24
  Q 792.18 169.44 792.21 169.60
  Q 792.27 170.00 792.67 170.04
  Q 794.96 170.24 797.29 169.83
  Q 797.95 169.71 797.42 169.31
  Q 796.29 168.45 796.75 165.99
  Q 798.23 166.96 799.84 165.61
  Q 800.31 165.22 800.92 165.23
  Q 802.72 165.24 804.08 164.41
  Q 805.23 163.70 806.53 163.46
  Q 808.51 163.10 810.38 162.80
  Q 810.91 162.72 810.98 162.18
  Q 811.03 161.72 811.34 161.41
  Q 811.69 161.05 812.19 161.10
  Q 816.00 161.44 819.38 159.79
  L 819.35 168.58
  Q 819.35 169.19 818.75 169.31
  Q 817.98 169.47 817.13 169.32
  Q 817.03 169.30 816.94 169.34
  Q 816.78 169.40 816.80 169.62
  Q 816.82 169.84 817.04 169.85
  L 831.05 170.00
  Q 831.69 170.01 831.69 169.37
  L 831.75 158.93
  Q 834.83 158.23 839.00 158.00
  Q 842.58 157.81 846.74 156.26
  L 846.72 168.74
  Q 846.72 169.26 846.21 169.39
  Q 845.23 169.64 844.20 169.11
  A 0.03 0.02 -58.3 0 0 844.18 169.12
  L 844.12 169.37
  Q 844.02 169.76 844.42 169.81
  Q 848.44 170.26 852.71 169.66
  Q 853.63 169.53 852.72 169.33
  Q 851.79 169.12 850.89 169.42
  A 0.53 0.53 0.0 0 1 850.20 168.92
  L 850.15 156.22
  L 855.24 155.89
  Q 855.25 161.03 855.28 166.00
  C 855.30 169.50 857.59 170.53 860.67 170.12
  Q 861.59 169.99 860.72 169.67
  L 859.81 169.33
  A 1.85 1.83 10.4 0 1 858.61 167.61
  L 858.57 154.82
  Q 868.01 153.39 876.98 154.30
  L 876.97 168.74
  Q 876.97 168.96 876.84 169.14
  Q 876.75 169.27 876.60 169.36
  Q 875.78 169.87 876.74 169.91
  Q 878.61 169.98 880.81 169.63
  Q 881.51 169.52 880.83 169.36
  Q 880.03 169.17 879.08 169.47
  A 0.73 0.72 -8.6 0 1 878.14 168.78
  L 878.12 153.72
  L 883.31 153.92
  Q 884.24 161.75 885.05 169.50
  Q 885.12 170.09 885.70 170.04
  Q 886.23 170.00 886.30 169.47
  L 888.69 152.63
  L 894.92 152.14
  Q 894.83 160.15 894.86 168.62
  Q 894.86 169.10 894.49 169.39
  Q 894.04 169.74 894.60 169.88
  C 896.44 170.35 899.09 169.78 901.05 169.65
  Q 901.09 169.64 901.08 169.60
  L 901.05 169.35
  Q 901.03 169.26 900.94 169.27
  Q 899.80 169.36 898.95 169.09
  Q 898.40 168.92 898.40 168.34
  L 898.31 153.42
  Q 900.66 154.49 904.00 154.49
  Q 904.50 154.49 904.88 154.82
  Q 905.05 154.96 905.22 155.10
  Q 905.54 155.38 905.96 155.44
  L 916.41 156.86
  L 916.39 168.37
  A 0.92 0.92 0.0 0 1 915.96 169.15
  Q 915.16 169.67 913.95 169.20
  A 0.02 0.01 -58.3 0 0 913.93 169.21
  L 913.87 169.46
  Q 913.83 169.65 914.02 169.68
  Q 917.97 170.23 922.23 169.67
  Q 923.21 169.54 922.24 169.36
  Q 921.44 169.21 920.65 169.33
  A 0.59 0.59 0.0 0 1 919.96 168.75
  L 919.89 155.74
  L 938.12 158.83
  L 938.07 168.63
  A 0.88 0.87 -81.9 0 1 936.96 169.47
  Q 936.09 169.23 935.69 169.35
  Q 934.78 169.63 935.85 169.76
  Q 938.71 170.10 941.75 169.62
  Q 942.52 169.50 941.76 169.35
  Q 940.79 169.15 939.85 169.32
  Q 939.24 169.43 939.24 168.81
  L 939.23 159.32
  L 948.52 158.90
  L 950.50 170.17
  A 0.58 0.57 -13.8 0 0 951.25 170.62
  L 951.55 170.52
  Q 951.79 170.44 951.79 170.19
  L 951.76 161.15
  L 968.40 160.99
  C 968.26 165.73 968.38 170.61 974.69 170.53
  Q 980.46 170.45 980.46 164.62
  Q 980.46 160.25 980.62 156.43
  Q 984.22 156.48 986.01 155.98
  Q 986.76 155.76 987.78 154.71
  Q 988.13 154.36 988.63 154.34
  Q 993.33 154.18 996.73 150.41
  Q 996.79 157.61 996.74 164.50
  Q 996.70 170.52 1002.70 170.99
  C 1005.97 171.25 1007.97 169.64 1007.98 166.52
  Q 1008.01 138.80 1007.99 109.13
  Q 1007.99 108.35 1008.76 108.44
  L 1010.42 108.62
  Q 1010.69 108.65 1010.69 108.38
  L 1010.69 108.12
  Q 1010.69 107.96 1010.53 107.94
  Q 1007.61 107.66 1004.55 107.92
  Q 1003.59 108.00 1004.50 108.32
  Q 1005.24 108.58 1006.11 108.51
  Q 1006.90 108.44 1006.90 109.24
  L 1006.92 166.79
  Q 1006.92 170.26 1003.46 170.05
  L 1002.67 170.01
  Q 1000.23 169.86 1000.23 167.42
  L 1000.19 109.23
  A 0.74 0.74 0.0 0 1 1000.99 108.49
  Q 1001.74 108.56 1002.42 108.37
  Q 1003.46 108.08 1002.38 107.99
  Q 998.31 107.66 994.23 108.05
  Q 995.59 104.05 994.54 100.37
  Q 993.97 98.39 993.88 96.96
  Q 993.77 95.16 993.47 93.54
  Q 993.03 91.20 992.87 88.94
  Q 992.75 87.33 992.43 85.79
  Q 992.10 84.23 992.06 82.71
  C 991.91 77.52 991.70 72.23 992.59 67.02
  Q 993.41 62.23 994.37 57.36
  Q 995.33 52.45 998.73 47.00
  C 1002.05 41.65 1006.10 39.07 1012.52 38.84
  Q 1017.70 38.66 1020.93 39.41
  Q 1023.28 39.96 1025.87 40.51
  Q 1028.70 41.10 1031.03 42.13
  Q 1037.44 44.96 1040.38 46.87
  Q 1054.47 56.03 1065.08 65.44
  Q 1074.54 73.85 1083.59 83.18
  Q 1083.62 83.21 1083.65 83.24
  Q 1091.99 91.11 1098.29 97.26
  Q 1099.19 98.13 1099.88 99.06
  Q 1100.62 100.06 1101.45 101.00
  C 1102.10 101.72 1102.33 102.68 1103.34 102.92
  Q 1104.02 103.08 1104.41 103.67
  L 1105.37 105.11
  Q 1105.66 105.54 1106.10 105.83
  Q 1107.10 106.50 1106.92 108.14
  Z
  M 1084.25 113.34
  A 5.98 5.98 0.0 0 0 1078.27 107.36
  L 1077.95 107.36
  A 5.98 5.98 0.0 0 0 1071.97 113.34
  L 1071.97 164.64
  A 5.98 5.98 0.0 0 0 1077.95 170.62
  L 1078.27 170.62
  A 5.98 5.98 0.0 0 0 1084.25 164.64
  L 1084.25 113.34
  Z
  M 1050.90 136.24
  C 1054.00 137.15 1053.97 141.85 1053.94 144.53
  Q 1053.94 144.60 1054.00 144.60
  L 1054.25 144.59
  Q 1054.46 144.59 1054.46 144.38
  Q 1054.47 136.07 1054.54 127.43
  Q 1054.54 127.20 1054.30 127.18
  L 1054.05 127.17
  A 0.05 0.05 0.0 0 0 1054.00 127.21
  Q 1053.90 129.65 1053.50 132.06
  Q 1053.21 133.83 1051.89 135.01
  Q 1051.68 135.21 1051.41 135.32
  Q 1050.00 135.89 1050.00 134.37
  Q 1050.04 122.67 1049.96 110.21
  Q 1049.94 107.70 1052.49 108.39
  Q 1052.76 108.46 1054.48 108.92
  Q 1057.04 109.61 1057.47 112.23
  Q 1058.44 118.08 1057.95 124.23
  Q 1057.95 124.30 1058.02 124.31
  L 1058.32 124.33
  A 0.21 0.21 0.0 0 0 1058.54 124.13
  Q 1059.02 116.20 1058.84 108.45
  Q 1058.83 107.84 1058.21 107.84
  L 1044.32 107.93
  Q 1044.21 107.93 1044.22 107.99
  L 1044.26 108.24
  Q 1044.30 108.50 1044.55 108.44
  Q 1045.26 108.29 1045.94 108.50
  Q 1046.50 108.67 1046.50 109.25
  L 1046.51 168.69
  A 0.69 0.68 -2.8 0 1 1045.89 169.37
  Q 1045.08 169.44 1044.40 169.30
  Q 1044.33 169.28 1044.33 169.35
  L 1044.30 169.61
  Q 1044.28 169.79 1044.47 169.81
  Q 1047.35 170.08 1050.24 169.91
  Q 1050.43 169.90 1050.58 169.79
  Q 1050.98 169.52 1050.54 169.34
  Q 1049.97 169.10 1049.97 168.48
  Q 1050.09 152.86 1050.18 136.77
  A 0.56 0.56 0.0 0 1 1050.90 136.24
  Z
  M 1127.1724 170.5195
  A 3.30 2.26 91.0 0 0 1129.4897 167.2594
  A 3.30 2.26 91.0 0 0 1127.2876 163.9205
  A 3.30 2.26 91.0 0 0 1124.9703 167.1806
  A 3.30 2.26 91.0 0 0 1127.1724 170.5195
  Z
  M 892.42 169.21
  Q 891.77 169.33 892.37 169.61
  Q 892.95 169.88 893.62 169.73
  Q 894.33 169.56 893.64 169.32
  Q 893.01 169.11 892.42 169.21
  Z"
/>
<path fill="#ffffff" d="
  M 1084.25 164.64
  A 5.98 5.98 0.0 0 1 1078.27 170.62
  L 1077.95 170.62
  A 5.98 5.98 0.0 0 1 1071.97 164.64
  L 1071.97 113.34
  A 5.98 5.98 0.0 0 1 1077.95 107.36
  L 1078.27 107.36
  A 5.98 5.98 0.0 0 1 1084.25 113.34
  L 1084.25 164.64
  Z
  M 1080.87 110.47
  A 2.71 2.71 0.0 0 0 1078.16 107.76
  L 1078.08 107.76
  A 2.71 2.71 0.0 0 0 1075.37 110.47
  L 1075.37 167.49
  A 2.71 2.71 0.0 0 0 1078.08 170.20
  L 1078.16 170.20
  A 2.71 2.71 0.0 0 0 1080.87 167.49
  L 1080.87 110.47
  Z"
/>
<path fill="#ffffff" d="
  M 1127.45 143.74
  L 1127.65 156.36
  Q 1127.66 156.63 1127.39 156.65
  L 1126.82 156.67
  Q 1126.60 156.68 1126.60 156.46
  L 1126.49 143.02
  Q 1127.32 139.69 1129.00 136.20
  Q 1130.04 134.05 1130.06 132.15
  Q 1130.16 121.16 1130.16 111.06
  Q 1130.16 108.86 1128.19 107.91
  Q 1127.62 107.63 1127.01 107.86
  Q 1124.56 108.78 1124.56 111.39
  L 1124.56 125.33
  Q 1124.56 125.72 1124.17 125.72
  L 1121.73 125.76
  Q 1121.22 125.76 1121.23 125.26
  Q 1121.32 120.39 1121.20 114.65
  C 1120.99 105.00 1133.69 105.25 1133.55 113.87
  Q 1133.43 121.37 1133.51 128.26
  C 1133.53 129.61 1133.14 131.29 1132.38 132.42
  Q 1128.58 138.13 1127.45 143.74
  Z"
/>
<path fill="#ffffff" d="
  M 980.62 156.43
  Q 980.46 160.25 980.46 164.62
  Q 980.46 170.45 974.69 170.53
  C 968.38 170.61 968.26 165.73 968.40 160.99
  Q 968.36 138.40 968.37 115.85
  C 968.37 112.01 968.34 108.85 972.95 107.66
  C 977.23 106.56 980.65 109.82 980.62 114.00
  Q 980.46 134.93 980.62 156.43
  Z
  M 971.77 159.27
  Q 971.65 163.60 971.83 167.94
  Q 971.88 169.26 973.90 170.01
  Q 974.44 170.21 974.99 169.95
  Q 977.21 168.90 977.21 166.45
  L 977.24 158.19
  Q 977.28 134.10 977.23 109.84
  Q 977.23 108.43 975.14 107.76
  Q 974.71 107.62 974.31 107.74
  Q 971.76 108.46 971.76 110.80
  Q 971.73 134.84 971.77 159.27
  Z"
/>
<path fill="#ffffff" d="
  M 796.75 165.99
  Q 796.29 168.45 797.42 169.31
  Q 797.95 169.71 797.29 169.83
  Q 794.96 170.24 792.67 170.04
  Q 792.27 170.00 792.21 169.60
  Q 792.18 169.44 792.26 169.24
  Q 792.63 169.09 792.94 168.77
  Q 793.22 168.49 793.25 168.05
  Q 793.42 165.65 793.41 163.00
  Q 793.30 136.41 793.42 110.10
  Q 793.43 107.51 791.06 108.54
  Q 790.46 108.80 789.86 109.06
  Q 787.43 110.12 787.07 112.75
  Q 786.24 118.80 786.33 124.12
  Q 786.33 124.31 786.14 124.31
  L 786.13 124.31
  Q 785.90 124.31 785.90 124.09
  Q 785.89 115.83 785.92 108.26
  A 0.38 0.37 -89.2 0 1 786.29 107.89
  L 803.69 107.88
  Q 804.24 107.88 804.24 108.43
  Q 804.27 116.53 804.21 124.35
  Q 804.21 124.40 804.16 124.40
  L 803.86 124.39
  Q 803.66 124.39 803.67 124.19
  Q 803.89 117.13 802.66 112.08
  Q 801.76 108.41 797.39 108.49
  Q 796.78 108.51 796.78 109.12
  L 796.75 165.99
  Z"
/>
<path fill="#ffffff" d="
  M 822.90 159.45
  L 822.90 168.93
  Q 822.90 169.29 823.26 169.32
  C 825.36 169.48 828.75 169.47 829.69 167.25
  Q 831.19 163.69 830.97 158.82
  Q 831.25 156.35 831.28 153.88
  Q 831.28 153.64 831.52 153.65
  L 831.53 153.65
  Q 831.77 153.65 831.77 153.89
  Q 831.71 156.40 831.75 158.93
  L 831.69 169.37
  Q 831.69 170.01 831.05 170.00
  L 817.04 169.85
  Q 816.82 169.84 816.80 169.62
  Q 816.78 169.40 816.94 169.34
  Q 817.03 169.30 817.13 169.32
  Q 817.98 169.47 818.75 169.31
  Q 819.35 169.19 819.35 168.58
  L 819.38 159.79
  L 819.37 109.18
  Q 819.37 108.51 818.70 108.50
  L 816.81 108.46
  Q 816.63 108.46 816.62 108.28
  L 816.60 108.01
  Q 816.59 107.91 816.70 107.91
  L 831.02 107.87
  Q 831.69 107.87 831.70 108.54
  Q 831.84 116.64 831.72 124.08
  Q 831.71 124.32 831.48 124.31
  L 831.22 124.31
  Q 831.18 124.31 831.19 124.27
  Q 831.53 118.15 830.20 111.77
  Q 829.75 109.62 827.63 109.03
  Q 826.98 108.85 825.25 108.37
  Q 822.89 107.72 822.89 110.17
  L 822.86 134.76
  Q 822.86 135.54 823.63 135.39
  C 826.67 134.81 826.90 129.97 826.73 127.58
  A 0.30 0.30 0.0 0 1 827.02 127.26
  L 827.28 127.26
  A 0.11 0.07 87.8 0 1 827.36 127.37
  L 827.35 144.36
  Q 827.34 144.57 827.13 144.56
  L 826.80 144.56
  A 0.07 0.06 90.0 0 1 826.74 144.49
  C 826.90 141.93 826.80 136.82 823.69 136.21
  A 0.52 0.51 -83.6 0 0 823.07 136.71
  L 822.90 159.45
  Z"
/>
<path fill="#ffffff" d="
  M 858.57 154.82
  L 858.61 167.61
  A 1.85 1.83 10.4 0 0 859.81 169.33
  L 860.72 169.67
  Q 861.59 169.99 860.67 170.12
  C 857.59 170.53 855.30 169.50 855.28 166.00
  Q 855.25 161.03 855.24 155.89
  L 855.20 140.76
  Q 855.19 138.96 853.42 138.63
  Q 852.52 138.47 851.52 138.40
  Q 850.07 138.29 850.08 139.75
  L 850.15 156.22
  L 850.20 168.92
  A 0.53 0.53 0.0 0 0 850.89 169.42
  Q 851.79 169.12 852.72 169.33
  Q 853.63 169.53 852.71 169.66
  Q 848.44 170.26 844.42 169.81
  Q 844.02 169.76 844.12 169.37
  L 844.18 169.12
  A 0.03 0.02 -58.3 0 1 844.20 169.11
  Q 845.23 169.64 846.21 169.39
  Q 846.72 169.26 846.72 168.74
  L 846.74 156.26
  L 846.72 108.93
  A 0.49 0.48 84.2 0 0 846.14 108.45
  Q 845.00 108.68 844.06 108.33
  Q 843.07 107.97 844.12 107.95
  Q 847.84 107.88 851.82 107.87
  C 857.51 107.86 858.79 111.98 858.64 117.02
  Q 858.42 124.24 858.59 132.52
  Q 858.68 136.43 855.72 137.68
  Q 855.10 137.94 855.72 138.21
  Q 858.51 139.44 858.56 143.75
  Q 858.62 148.84 858.57 154.82
  Z
  M 850.11 108.95
  L 850.11 137.41
  A 0.49 0.49 0.0 0 0 850.60 137.90
  L 852.51 137.90
  A 2.89 2.76 90.0 0 0 855.27 135.01
  L 855.27 111.35
  A 2.89 2.76 90.0 0 0 852.51 108.46
  L 850.60 108.46
  A 0.49 0.49 0.0 0 0 850.11 108.95
  Z"
/>
<path fill="#ffffff" d="
  M 898.31 153.42
  L 898.40 168.34
  Q 898.40 168.92 898.95 169.09
  Q 899.80 169.36 900.94 169.27
  Q 901.03 169.26 901.05 169.35
  L 901.08 169.60
  Q 901.09 169.64 901.05 169.65
  C 899.09 169.78 896.44 170.35 894.60 169.88
  Q 894.04 169.74 894.49 169.39
  Q 894.86 169.10 894.86 168.62
  Q 894.83 160.15 894.92 152.14
  Q 894.82 133.10 894.75 114.50
  Q 894.74 112.67 894.54 111.64
  Q 894.23 109.95 894.05 111.66
  C 893.89 113.13 894.07 114.59 893.84 116.10
  Q 891.12 134.52 888.69 152.63
  L 886.30 169.47
  Q 886.23 170.00 885.70 170.04
  Q 885.12 170.09 885.05 169.50
  Q 884.24 161.75 883.31 153.92
  Q 880.98 132.79 878.53 111.68
  Q 878.51 111.55 878.39 111.56
  L 878.38 111.56
  Q 878.25 111.57 878.25 111.69
  Q 877.92 132.70 878.12 153.72
  L 878.14 168.78
  A 0.73 0.72 -8.6 0 0 879.08 169.47
  Q 880.03 169.17 880.83 169.36
  Q 881.51 169.52 880.81 169.63
  Q 878.61 169.98 876.74 169.91
  Q 875.78 169.87 876.60 169.36
  Q 876.75 169.27 876.84 169.14
  Q 876.97 168.96 876.97 168.74
  L 876.98 154.30
  L 876.99 109.14
  Q 876.99 108.37 876.22 108.44
  L 874.54 108.59
  A 0.20 0.19 81.0 0 1 874.34 108.44
  L 874.28 108.17
  Q 874.22 107.88 874.51 107.88
  L 880.95 107.89
  Q 881.51 107.89 881.57 108.45
  L 886.60 153.74
  Q 886.95 156.83 887.38 153.75
  L 893.78 108.45
  A 0.65 0.64 4.1 0 1 894.42 107.90
  L 901.05 107.91
  Q 901.98 107.91 901.15 108.31
  Q 900.34 108.70 899.49 108.44
  A 0.88 0.88 0.0 0 0 898.35 109.28
  L 898.31 153.42
  Z"
/>
<path fill="#ffffff" d="
  M 919.89 155.74
  L 919.96 168.75
  A 0.59 0.59 0.0 0 0 920.65 169.33
  Q 921.44 169.21 922.24 169.36
  Q 923.21 169.54 922.23 169.67
  Q 917.97 170.23 914.02 169.68
  Q 913.83 169.65 913.87 169.46
  L 913.93 169.21
  A 0.02 0.01 -58.3 0 1 913.95 169.20
  Q 915.16 169.67 915.96 169.15
  A 0.92 0.92 0.0 0 0 916.39 168.37
  L 916.41 156.86
  L 916.40 109.21
  Q 916.40 108.52 915.71 108.50
  L 913.81 108.46
  Q 913.63 108.45 913.62 108.27
  L 913.60 108.01
  Q 913.60 107.92 913.69 107.92
  L 922.37 107.88
  Q 922.68 107.88 922.65 108.18
  L 922.62 108.44
  Q 922.61 108.53 922.50 108.53
  L 920.73 108.48
  Q 919.90 108.46 919.90 109.30
  L 919.89 155.74
  Z"
/>
<path fill="#ffffff" d="
  M 951.76 161.15
  L 951.79 170.19
  Q 951.79 170.44 951.55 170.52
  L 951.25 170.62
  A 0.58 0.57 -13.8 0 1 950.50 170.17
  L 948.52 158.90
  L 939.73 111.51
  Q 939.19 108.58 939.19 111.56
  L 939.23 159.32
  L 939.24 168.81
  Q 939.24 169.43 939.85 169.32
  Q 940.79 169.15 941.76 169.35
  Q 942.52 169.50 941.75 169.62
  Q 938.71 170.10 935.85 169.76
  Q 934.78 169.63 935.69 169.35
  Q 936.09 169.23 936.96 169.47
  A 0.88 0.87 -81.9 0 0 938.07 168.63
  L 938.12 158.83
  L 938.11 109.14
  Q 938.11 108.47 937.45 108.48
  L 935.63 108.49
  Q 935.38 108.50 935.36 108.25
  L 935.33 107.99
  Q 935.32 107.88 935.44 107.88
  L 942.00 107.91
  Q 942.57 107.91 942.67 108.47
  Q 946.45 129.42 950.20 149.23
  Q 950.58 151.25 950.99 149.24
  Q 951.05 148.94 950.85 148.47
  Q 950.62 147.94 950.63 147.34
  Q 950.70 127.69 950.68 109.01
  Q 950.68 108.59 950.27 108.53
  Q 948.95 108.33 947.59 108.67
  A 0.06 0.05 77.3 0 1 947.52 108.62
  L 947.47 108.30
  Q 947.42 107.99 947.73 107.97
  Q 950.91 107.69 954.15 108.02
  Q 955.24 108.13 954.18 108.41
  Q 953.34 108.62 952.58 108.51
  Q 951.76 108.40 951.76 109.22
  L 951.76 161.15
  Z"
/>
<path fill="#ffffff" d="
  M 996.73 150.41
  L 996.74 109.28
  Q 996.74 108.48 995.94 108.47
  Q 992.38 108.44 994.23 108.05
  Q 998.31 107.66 1002.38 107.99
  Q 1003.46 108.08 1002.42 108.37
  Q 1001.74 108.56 1000.99 108.49
  A 0.74 0.74 0.0 0 0 1000.19 109.23
  L 1000.23 167.42
  Q 1000.23 169.86 1002.67 170.01
  L 1003.46 170.05
  Q 1006.92 170.26 1006.92 166.79
  L 1006.90 109.24
  Q 1006.90 108.44 1006.11 108.51
  Q 1005.24 108.58 1004.50 108.32
  Q 1003.59 108.00 1004.55 107.92
  Q 1007.61 107.66 1010.53 107.94
  Q 1010.69 107.96 1010.69 108.12
  L 1010.69 108.38
  Q 1010.69 108.65 1010.42 108.62
  L 1008.76 108.44
  Q 1007.99 108.35 1007.99 109.13
  Q 1008.01 138.80 1007.98 166.52
  C 1007.97 169.64 1005.97 171.25 1002.70 170.99
  Q 996.70 170.52 996.74 164.50
  Q 996.79 157.61 996.73 150.41
  Z"
/>
<path fill="#ffffff" d="
  M 1050.90 136.24
  A 0.56 0.56 0.0 0 0 1050.18 136.77
  Q 1050.09 152.86 1049.97 168.48
  Q 1049.97 169.10 1050.54 169.34
  Q 1050.98 169.52 1050.58 169.79
  Q 1050.43 169.90 1050.24 169.91
  Q 1047.35 170.08 1044.47 169.81
  Q 1044.28 169.79 1044.30 169.61
  L 1044.33 169.35
  Q 1044.33 169.28 1044.40 169.30
  Q 1045.08 169.44 1045.89 169.37
  A 0.69 0.68 -2.8 0 0 1046.51 168.69
  L 1046.50 109.25
  Q 1046.50 108.67 1045.94 108.50
  Q 1045.26 108.29 1044.55 108.44
  Q 1044.30 108.50 1044.26 108.24
  L 1044.22 107.99
  Q 1044.21 107.93 1044.32 107.93
  L 1058.21 107.84
  Q 1058.83 107.84 1058.84 108.45
  Q 1059.02 116.20 1058.54 124.13
  A 0.21 0.21 0.0 0 1 1058.32 124.33
  L 1058.02 124.31
  Q 1057.95 124.30 1057.95 124.23
  Q 1058.44 118.08 1057.47 112.23
  Q 1057.04 109.61 1054.48 108.92
  Q 1052.76 108.46 1052.49 108.39
  Q 1049.94 107.70 1049.96 110.21
  Q 1050.04 122.67 1050.00 134.37
  Q 1050.00 135.89 1051.41 135.32
  Q 1051.68 135.21 1051.89 135.01
  Q 1053.21 133.83 1053.50 132.06
  Q 1053.90 129.65 1054.00 127.21
  A 0.05 0.05 0.0 0 1 1054.05 127.17
  L 1054.30 127.18
  Q 1054.54 127.20 1054.54 127.43
  Q 1054.47 136.07 1054.46 144.38
  Q 1054.46 144.59 1054.25 144.59
  L 1054.00 144.60
  Q 1053.94 144.60 1053.94 144.53
  C 1053.97 141.85 1054.00 137.15 1050.90 136.24
  Z"
/>
<rect fill="#282219" fill-opacity="0.251" x="1075.37" y="107.76" width="5.50" height="62.44" rx="2.71"/>
<path fill="#ffffff" d="
  M 1106.92 108.14
  Q 1107.08 108.24 1106.81 108.82
  Q 1105.48 108.32 1104.61 108.69
  Q 1104.13 108.89 1104.13 109.42
  L 1104.13 168.79
  A 0.60 0.60 0.0 0 0 1104.83 169.38
  Q 1105.76 169.21 1106.63 169.37
  Q 1107.69 169.55 1106.62 169.69
  Q 1102.48 170.23 1098.47 169.81
  Q 1097.47 169.70 1098.45 169.45
  Q 1099.19 169.27 1099.94 169.44
  A 0.66 0.66 0.0 0 0 1100.75 168.80
  L 1100.75 109.24
  A 0.75 0.75 0.0 0 0 1099.74 108.54
  Q 1098.92 108.85 1098.18 108.41
  Q 1097.50 108.01 1098.29 108.02
  L 1106.92 108.14
  Z"
/>
<path fill="#282219" fill-opacity="0.251" d="
  M 242.48 272.00
  L 239.28 272.00
  Q 237.30 271.51 235.25 271.47
  Q 227.38 271.29 219.48 272.00
  L 204.65 272.00
  L 200.23 272.00
  L 199.40 272.00
  L 188.64 272.00
  L 18.13 272.00
  L 9.48 272.00
  L 0.00 272.00
  L 0.00 271.14
  L 0.00 259.22
  L 0.00 244.75
  L 0.76 141.98
  A 3.13 3.12 0.1 0 1 3.88 138.88
  Q 14.08 138.85 25.21 138.27
  Q 32.76 137.88 47.98 138.06
  C 51.45 138.10 54.85 137.21 58.34 137.34
  Q 62.82 137.51 67.29 137.74
  Q 73.02 138.04 76.10 139.10
  Q 83.37 141.60 88.07 148.14
  C 89.81 150.57 91.36 153.10 93.42 155.24
  Q 98.44 160.43 103.97 165.85
  Q 105.70 167.55 108.03 167.65
  Q 116.64 168.04 125.99 169.07
  Q 133.29 169.87 141.25 169.90
  Q 150.34 169.93 159.86 170.41
  Q 163.82 170.62 168.78 171.75
  Q 173.25 172.77 177.63 173.80
  Q 180.88 174.56 183.16 177.55
  Q 185.01 179.97 185.96 183.05
  C 186.78 185.71 188.76 187.34 189.76 189.81
  Q 194.51 201.57 197.28 211.75
  Q 198.25 215.34 199.28 218.47
  Q 199.88 220.29 200.17 222.03
  C 200.47 223.81 201.33 225.29 201.69 227.03
  C 202.78 232.24 204.74 237.01 205.76 242.12
  Q 206.67 246.69 209.22 250.48
  Q 214.78 258.75 221.02 262.98
  Q 223.15 264.43 226.85 263.90
  Q 227.82 263.76 228.77 264.29
  Q 229.28 264.57 229.86 264.60
  Q 232.04 264.72 233.90 265.70
  Q 234.34 265.93 234.82 265.82
  C 235.27 265.71 236.02 265.88 236.37 266.17
  Q 238.03 267.54 240.18 267.99
  Q 240.57 268.07 240.88 268.30
  Q 242.55 269.58 244.44 270.15
  A 0.64 0.62 3.2 0 1 244.89 270.64
  Q 244.97 271.02 244.68 271.25
  Q 244.50 271.40 244.27 271.44
  Q 243.27 271.60 242.48 272.00
  Z"
/>
<path fill="#282219" fill-opacity="0.251" d="
  M 977.24 158.19
  L 977.21 166.45
  Q 977.21 168.90 974.99 169.95
  Q 974.44 170.21 973.90 170.01
  Q 971.88 169.26 971.83 167.94
  Q 971.65 163.60 971.77 159.27
  Q 974.43 159.45 977.24 158.19
  Z"
/>
<path fill="#282219" fill-opacity="0.251" d="
  M 830.97 158.82
  Q 831.19 163.69 829.69 167.25
  C 828.75 169.47 825.36 169.48 823.26 169.32
  Q 822.90 169.29 822.90 168.93
  L 822.90 159.45
  Q 827.04 158.36 830.97 158.82
  Z"
/>
<ellipse fill="#ffffff" cx="0.00" cy="0.00" transform="translate(1127.23,167.22) rotate(91.0)" rx="3.30" ry="2.26"/>
<path fill="#ffffff" d="
  M 892.42 169.21
  Q 893.01 169.11 893.64 169.32
  Q 894.33 169.56 893.62 169.73
  Q 892.95 169.88 892.37 169.61
  Q 891.77 169.33 892.42 169.21
  Z"
/>
<path fill="#282219" fill-opacity="0.251" d="
  M 1711.62 272.00
  L 1698.26 272.00
  L 1685.13 272.00
  L 1589.98 272.00
  L 1584.20 272.00
  Q 1584.11 271.98 1584.03 272.00
  Q 1581.79 271.48 1579.60 272.00
  L 1569.72 272.00
  Q 1567.71 271.77 1565.82 271.32
  Q 1564.95 271.11 1565.79 270.83
  Q 1565.91 270.79 1566.04 270.83
  Q 1566.16 270.86 1566.23 270.76
  Q 1575.09 258.56 1588.98 247.24
  Q 1601.27 237.23 1617.60 221.92
  C 1620.18 219.50 1623.27 217.62 1626.12 215.45
  C 1629.31 213.03 1632.82 211.19 1636.37 209.26
  Q 1638.45 208.14 1640.54 207.29
  Q 1648.00 204.28 1654.94 201.64
  Q 1664.04 198.19 1677.62 198.59
  C 1682.64 198.73 1687.25 200.83 1690.56 204.49
  C 1693.19 207.39 1695.21 211.71 1696.36 215.50
  C 1697.68 219.86 1699.34 224.03 1700.53 228.42
  C 1701.36 231.47 1702.62 234.37 1703.58 237.37
  Q 1705.81 244.37 1708.18 251.42
  Q 1708.87 253.47 1709.69 255.49
  Q 1710.55 257.64 1711.01 259.61
  C 1711.81 263.01 1713.35 266.08 1714.04 269.64
  Q 1714.13 270.13 1714.48 270.47
  L 1714.80 270.80
  Q 1715.36 271.36 1714.58 271.49
  L 1711.62 272.00
  Z"
/>
</svg>
